<svg width="29" height="35" viewBox="0 0 29 35" fill="none" xmlns="http://www.w3.org/2000/svg">
<path d="M27.2476 17.7902C26.7356 19.5961 26.2003 21.469 25.8978 23.1858C25.4556 25.7721 25.6185 27.9794 25.8047 29.228L12.7716 34.2V27.9348C12.7716 27.6004 12.6319 27.2882 12.3992 27.0653C12.1665 26.8423 11.8406 26.7085 11.4915 26.7085H6.79033C6.25504 26.7085 5.81284 26.3072 5.81284 25.8167V20.8224C5.81284 20.1758 5.30083 19.6407 4.6259 19.5961L3.11313 19.4846C1.8331 19.3955 1.3909 19.3063 1.29781 19.284C0.599609 18.9718 0.599609 18.5482 0.599609 18.4144C0.599609 18.3699 0.739249 17.3665 3.95097 13.7546L4.06734 13.6208C4.41644 13.2195 4.41644 12.8182 4.41644 12.0601V11.7034C4.43972 11.6142 4.43971 11.5473 4.43971 11.4581C4.46299 5.86182 10.3744 0.666863 16.8211 0.599976H16.9608C23.2446 0.599976 28.5975 5.48279 28.5975 11.2351C28.644 12.9519 27.9225 15.4045 27.2476 17.7902Z" fill="#6B7CFF"/>
</svg>
