<svg width="42" height="52" viewBox="0 0 42 52" fill="none" xmlns="http://www.w3.org/2000/svg">
<path fill-rule="evenodd" clip-rule="evenodd" d="M20.7981 0.800049L25.1174 2.89993L26.9002 3.8283C27.5291 4.14559 28.1051 4.40383 29.143 4.79515L30.3619 5.24079C31.9662 5.8337 33.0959 6.02352 33.5628 6.08268L33.7138 6.10002L33.9577 6.11104L34.1623 6.12481L42 6.75133V30.7616C42 42.2621 25.2501 51.2001 21 51.2001C16.0714 51.2001 0.408636 42.0121 0.00783626 31.1843L0 30.7616V6.71415L5.61867 6.32377C6.35306 6.26769 7.03786 6.21211 7.58169 6.16208L8.13902 6.10497C8.53819 6.05096 9.86052 5.8381 11.9456 5.17607L12.5797 4.94097C14.1223 4.35226 15.3377 3.76633 16.0368 3.40688L16.697 3.05278L20.7981 0.800049ZM20.9174 5.03834L18.7051 6.23454L18.2614 6.47882C18.0829 6.57382 17.8728 6.68245 17.6277 6.8049L16.826 7.19361C15.8993 7.62942 14.8817 8.06252 13.7915 8.47144C13.507 8.57811 13.2202 8.68211 12.9313 8.7832C11.6808 9.17647 10.5165 9.47489 9.50156 9.67916L9.07593 9.76095C8.60704 9.84661 8.2686 9.89489 8.06582 9.91764L7.90845 9.93233L3.5 10.2538V30.7966L3.50831 31.1682C3.68519 35.126 6.67455 38.8864 11.3456 42.4091C14.9236 45.1075 19.1919 47.3768 21 47.3768C22.7482 47.3768 27.027 45.0916 30.5965 42.4132C35.3062 38.8792 38.3137 35.1286 38.4916 31.1684L38.5 30.7966V10.2693L34.2712 9.93544L34.0508 9.92676L33.8684 9.91483L33.453 9.8724C33.301 9.85359 33.1354 9.82992 32.9568 9.80076C32.0163 9.64723 30.9436 9.38148 29.7543 8.97691L28.5123 8.5425L27.6389 8.21735C26.7826 7.88641 25.9897 7.54351 25.2664 7.19953L24.5216 6.83277L23.9903 6.5541L23.8524 6.4785L23.5598 6.30968L23.2979 6.16788L20.9174 5.03834Z" fill="#6B7CFF"/>
</svg>
